<svg xmlns="http://www.w3.org/2000/svg" width="256" height="256"><path fill-opacity=".067" d="M0 128.004v128.004l128.25-.254 128.25-.254.254-127.75L257.008 0H0v128.004m.485.496c0 70.4.119 99.053.265 63.672.146-35.38.146-92.98 0-128C.604 29.153.485 58.1.485 128.5" fill="#EDEFEB" fill-rule="evenodd"/><path fill-opacity=".227" d="M118.749 67.086c-5.632.825-16.924 5.221-23.126 9.002-1.718 1.048-3.97 1.906-5.005 1.908-1.035.002-3.398.941-5.25 2.086-2.664 1.646-3.373 2.744-3.392 5.25-.014 1.742-.442 4.974-.952 7.182-1.403 6.071-2.081 31.455-1.201 45.002.738 11.376 1.009 12.492 5.091 20.923 9.951 20.561 33.348 35.767 48.838 31.741 8.936-2.323 17.091-7.092 24.081-14.082 7.903-7.903 12.913-16.8 16.689-29.635 2.455-8.345 2.604-9.963 2.165-23.463-.399-12.232-.889-15.742-3.132-22.442-1.706-5.093-2.731-10.473-2.857-15L170.5 78.5l-4-.574c-2.2-.316-8.283-2.665-13.517-5.221-12.531-6.119-21.155-7.534-34.234-5.619m-1.55 16.9c-3.974.942-3.916.888-4.351 4.014-.291 2.088.105 2.552 2.402 2.816 2.492.287 2.75.017 2.75-2.877 0-3.177.023-3.191 4.074-2.543 2.478.396 3.844.28 3.487-.297-.322-.521.208-1.154 1.177-1.407 3.084-.805-6.095-.521-9.539.294M138 84.85c0 .541.531 1.16 1.18 1.377 2.098.699-.012 3.773-2.59 3.773-1.359 0-2.792.518-3.184 1.152-.514.831.466.994 3.519.585 4.334-.581 7.234-3.028 6.799-5.737-.264-1.644-5.724-2.74-5.724-1.15m-39 2.591c0 .857.45 1.559 1 1.559s1-.423 1-.941-.45-1.219-1-1.559c-.55-.34-1 .084-1 .941m62 .5c0 2.415.556 2.658 1.349.591.31-.807.133-1.734-.393-2.059-.526-.325-.956.336-.956 1.468m-67 .118c0 .582.45.781 1 .441s1-.816 1-1.059S95.55 87 95 87s-1 .477-1 1.059m31 12.882c0 .518.445 1.216.989 1.552.566.35.734-.051.393-.941-.665-1.732-1.382-2.049-1.382-.611M131 112c0 .55.477 1 1.059 1s.781-.45.441-1-.816-1-1.059-1-.441.45-.441 1m-16.362 4.5c-.632 1.648-.223 1.764 3.101.873 1.231-.33 1.992-.999 1.691-1.487-.887-1.434-4.167-1.014-4.792.614m24.64-.693c-.82.521-.246 1.144 1.75 1.898 2.651 1 2.972.915 2.972-.792 0-1.977-2.448-2.551-4.722-1.106m-11.134 4.371c-.135 2.298-.475 4.548-.754 5-.279.452.306.822 1.301.822 1.504 0 1.809-.843 1.809-5 0-6.064-2.005-6.763-2.356-.822m-13.531 6.071c.081 3.079.564 4.34 1.75 4.574 1.295.256 1.637-.504 1.637-3.643 0-3.395-1.142-5.171-3.332-5.181-.092 0-.117 1.912-.055 4.25M139.2 123.2c-2.012 2.012-1.49 6.912.8 7.51 2.929.766 2.44 2.284-.75 2.329-2.732.039-2.728.049.615 1.5 1.85.804 3.538 1.461 3.75 1.461.212 0 .385-3.15.385-7 0-6.074-.238-7-1.8-7-.99 0-2.34.54-3 1.2m-9.533 9.467c-.929.928-.839 7.333.102 7.333.423 0 .761-1.799.75-3.999-.01-2.199-.056-3.999-.102-4-.046 0-.384.299-.75.666m-14.9 1.5c.864.864 1.763.881 3.45.068 2.144-1.033 2.073-1.104-1.167-1.167-2.63-.052-3.172.21-2.283 1.099m26.483 5.417c-2.776 1.215-3.25 1.932-3.25 4.919 0 4.044 2.238 4.79 4.075 1.358 1.024-1.915 3.057-7.984 2.605-7.779-.099.044-1.643.721-3.43 1.502m-26.826 2.675c.32 2.913 2.37 6.741 3.611 6.741 1.069 0 1.308-4.943.358-7.418-.98-2.553-4.262-1.992-3.969.677M128 147c0 3.333.417 5 1.25 5s1.25-1.667 1.25-5-.417-5-1.25-5-1.25 1.667-1.25 5m-30.73 9.931c.08 1.062.502 1.71.938 1.441 1.108-.686.993-3.372-.146-3.372-.516 0-.872.869-.792 1.931m65.722-.441c1.022 1.232.827 1.654-1.128 2.437-1.524.61-1.785.969-.736 1.01.895.034 2.171-.592 2.836-1.393 1.281-1.544.634-3.544-1.145-3.544-.674 0-.611.546.173 1.49M130 177.882c0 .55.45 1.278 1 1.618.55.34 1 .168 1-.382s-.45-1.278-1-1.618c-.55-.34-1-.168-1 .382" fill="#EDEFEB" fill-rule="evenodd"/><path fill-opacity=".543" d="M113.795 68.587c-2.588.796-7.988 3.19-12 5.321s-8.982 4.168-11.045 4.528c-2.911.508-3.75 1.117-3.75 2.719 0 1.135-1.136 6.778-2.524 12.54-1.388 5.763-2.441 11.001-2.34 11.641.102.64-.337 2.431-.976 3.979-.664 1.611-1.16 8.053-1.16 15.062 0 19.402 4.669 33.903 15.086 46.853 7.583 9.426 14.352 14.218 24.59 17.411 8.4 2.618 8.537 2.628 14.494.971 9.595-2.667 15.824-6.388 23.441-14.003 7.88-7.878 11.943-14.928 15.994-27.752 2.384-7.547 2.542-9.23 2.227-23.74-.212-9.786-.787-16.364-1.539-17.617-1.282-2.136-4.293-13.969-4.293-16.873 0-.96-.421-1.485-.936-1.167-.581.359-.581-.658 0-2.684 1.626-5.668 1.26-6.626-2.814-7.369-2.062-.376-7.128-2.372-11.258-4.435-4.129-2.063-9.948-4.475-12.931-5.361-6.757-2.007-21.78-2.02-28.266-.024m2.279 15.226c-2.418.74-4.941 5.652-3.596 7 1.182 1.184 26.818 1.429 29.795.285 2.386-.917 2.681-1.452 2.109-3.832-.365-1.521-.819-2.947-1.009-3.169-.66-.77-24.887-1.022-27.299-.284m3.176 1.929c-.687.233-1.25 1.535-1.25 2.891 0 1.969.323 2.285 1.602 1.57.882-.494 3.381-.572 5.553-.175 2.753.504 4.349.325 5.262-.588 1.006-1.006 1.586-1.037 2.489-.134.903.903 1.397.83 2.12-.314 1.215-1.921 1.238-3.273.043-2.535-.512.317-1.214.117-1.561-.443-.424-.687-1.243-.691-2.508-.014-1.225.656-2.09.664-2.486.023-.383-.62-1.326-.533-2.56.238-1.428.892-2.425.929-3.704.138-.963-.596-2.312-.891-3-.657M160 87.5c0 3.111-1.743 3.255-3.022.25-.944-2.217-.955-2.214-.718.25.322 3.35 5.227 4.192 6.219 1.067.697-2.198-.009-4.067-1.538-4.067-.518 0-.941 1.125-.941 2.5m-66 .532c0 2.643 3.957 4.287 5.887 2.446.762-.727 1.114-2.033.781-2.9-.882-2.3-2.574-1.935-1.958.422.364 1.391.031 2-1.093 2-.95 0-1.617-.825-1.617-2 0-1.1-.45-2-1-2s-1 .915-1 2.032m43 .59c0 1.329.271 1.398 1.5.378.825-.685 1.5-1.415 1.5-1.622 0-.208-.675-.378-1.5-.378s-1.5.73-1.5 1.622m-27.942 6.808c-.695.837-3.653 2.652-6.574 4.034l-5.311 2.513-.719 7.674c-1.209 12.9 1.739 27.835 7.26 36.778C109.058 155.084 123.42 167 128.509 167c3.049 0 12.542-6.095 18.009-11.562 9.128-9.128 14.44-23.437 14.454-38.938.011-12.02-.737-14.507-4.871-16.212-1.981-.816-4.992-2.534-6.692-3.816-2.768-2.087-3.551-2.225-7.5-1.314-4.6 1.061-27.235.639-29.999-.56-.932-.404-2.112-.06-2.852.832m56.598 4.07c.335 2.2.775 4.188.977 4.417.757.859.19-4.497-.68-6.417-.631-1.394-.721-.788-.297 2m-56.829-.788c-2.594 1.609-4.63 7.18-3.369 9.22.305.493.037 1.07-.595 1.28-.832.278-.857.931-.091 2.362.694 1.296.726 2.571.094 3.702-.644 1.15-.616 1.724.084 1.724.578 0 1.05.702 1.05 1.559s-.401 1.311-.892 1.008c-.984-.608-2.156 6.632-1.203 7.433.809.68 1.122 3.398 1.207 10.5.078 6.507 2.165 12.5 4.352 12.5.753 0 1.541.515 1.75 1.143.275.823.933.849 2.348.092 1.44-.771 2.862-.676 5.317.356 1.843.775 3.861 1.38 4.486 1.346.624-.035.122-.471-1.115-.968-1.948-.783-2.25-1.637-2.25-6.367 0-4.904.23-5.496 2.25-5.782 3.248-.462 2.766-3.097-.75-4.104-3.156-.904-8.5.467-8.5 2.18 0 .52 1.35 1.242 3 1.604 2.855.627 3 .906 3 5.754v5.095l-2.25-1.985c-1.237-1.092-3.487-1.937-5-1.878-1.641.064-2.75-.416-2.75-1.19 0-1.585.535-1.615 3.217-.18 1.833.981 1.995.89 1.332-.75-.414-1.026-.994-4.678-1.288-8.116-.455-5.313-.823-6.25-2.457-6.25-1.108 0-1.643-.452-1.262-1.068.363-.588 1.29-.827 2.059-.532 1.116.429 1.399-.872 1.399-6.431 0-3.979.429-6.969 1-6.969.55 0 1-.648 1-1.441 0-1.975 1.305-2.614 3.048-1.493 1.264.813 1.257 1.062-.048 1.919-1.191.782-.975.988 1.05 1 1.403.008 3.056.521 3.674 1.139.833.833 1.962.833 4.349 0 1.774-.618 6.196-1.176 9.826-1.24 3.631-.064 5.814-.322 4.851-.573-2.183-.571-2.26-1.901-.157-2.708 1.062-.408 1.767.056 2.116 1.393.288 1.102.922 2.004 1.408 2.004.485 0 .883 3.198.883 7.107 0 5.838.262 7.006 1.468 6.544.807-.31 1.734-.133 2.059.393.556.9-.61 1.262-2.277.706-.412-.137-.997 2.921-1.299 6.796-.368 4.719-1.194 7.929-2.5 9.719-2.051 2.81-4.44 3.604-4.466 1.485-.011-.865-.242-.911-.75-.15-.404.605-1.41 1.357-2.235 1.671-.985.375-.707.598.809.65 1.27.043 2.049.5 1.731 1.015-.351.568.542.614 2.275.117 1.614-.463 3.577-.413 4.519.114 1.03.577 1.666.576 1.666-.001 0-.513.895-1.167 1.988-1.453 2.842-.743 4.055-4.84 3.533-11.932-.261-3.541-.007-6.696.599-7.425.579-.698.762-1.738.407-2.312-.355-.574-.211-1.044.32-1.044.917 0 .646-2.734-.595-6-.313-.825-.438-1.95-.277-2.5.727-2.486.538-14.209-.259-16.085-1.038-2.442-5.686-5.415-8.465-5.415-3.956 0-6.982 5.946-5.291 10.395.912 2.399.833 2.564-.807 1.687-.999-.535-2.455-1.746-3.235-2.69-1.162-1.407-1.178-1.798-.087-2.165 1.97-.663-3.686-6.227-6.33-6.227-1.224 0-3.113 1.336-4.455 3.152l-2.331 3.152-1.503-2.902c-2.517-4.861-5.6-5.659-10.385-2.69m3.951.844c-.972.972.264 3.444 1.722 3.444 1.816 0 2.569 2.529 1.172 3.937-.898.906-.792 1.037.457.562 1.139-.434 1.586-1.729 1.488-4.309-.11-2.888-.581-3.754-2.17-3.982-1.116-.161-2.317-.004-2.669.348m27.135.194c-.694 5.998-.598 7.157.628 7.627 1.078.414 1.173 0 .441-1.925-.582-1.529-.577-2.452.011-2.452.519 0 .697-.787.394-1.75-.521-1.656-.472-1.655.9.011 1.225 1.488 1.629 1.545 2.607.367.9-1.085.8-1.531-.45-2.011-2.193-.842-4.426-.776-4.531.133M125 101.566c0 .861.466 2.436 1.035 3.5.757 1.413.712 1.934-.166 1.934-1.321 0-.257 1.424 1.214 1.625 2.233.304 2.333.465.917 1.466-1.333.943-1.333 1.016 0 .652 3.023-.825 1.482-10.743-1.669-10.743-.732 0-1.331.705-1.331 1.566m46.079 1.017c.048 1.165.285 1.402.604.605.289-.722.253-1.585-.079-1.917-.332-.332-.568.258-.525 1.312M127 103.941c0 1.132.45 2.059 1 2.059s1-.648 1-1.441-.45-1.719-1-2.059c-.55-.34-1 .309-1 1.441m-18.077-.75c-.691 2.795-.514 3.809.665 3.809 1.614 0 1.916-2.571.412-3.5-.55-.34-1.034-.479-1.077-.309m37.716.503c-1.195 1.195-.645 3.306.861 3.306.825 0 1.5-.648 1.5-1.441 0-1.671-1.427-2.798-2.361-1.865m-26.908 3.226c-.435 1.663-.305 2.054.437 1.312.582-.582.86-1.647.62-2.369-.25-.749-.703-.295-1.057 1.057M109 108.571c0 1.571 2.789 3.176 4.088 2.354 1.277-.809.586-1.347-1.338-1.043-.412.065-.75-.332-.75-.882s-.45-1-1-1-1 .257-1 .571m24 .37c0 .518.445 1.216.989 1.552.566.35.734-.051.393-.941-.665-1.732-1.382-2.049-1.382-.611m11.729.151c-2.055 1.196-1.388 2.944 1.08 2.829 1.051-.049 1.216-.271.435-.585-.691-.279-1.014-.899-.718-1.378.296-.479 1.199-.617 2.006-.307.807.309 1.468.065 1.468-.544 0-1.373-1.928-1.379-4.271-.015m-20.694 2.842c-.569 1.064-1.035 2.189-1.035 2.5 0 .976 4.428.586 6-.528 1.171-.829.891-.965-1.275-.618-2.343.375-2.683.154-2.182-1.422.775-2.442-.188-2.398-1.508.068m6.465.066c.34.55 1.068 1 1.618 1s.722-.45.382-1c-.34-.55-1.068-1-1.618-1s-.722.45-.382 1m-14.388 6.241c-2.79 1.471-2.977 3.105-.415 3.625.992.201 2.134.876 2.538 1.5.526.813.739.78.75-.116.008-.687 1.113-1.25 2.456-1.25 2.666 0 4.292-1.679 2.922-3.016-1.653-1.614-5.879-1.994-8.251-.743m18.138-.21c-2.938 1.181-2.859 2.787.193 3.947 2.034.774 2.507 1.734 2.82 5.726l.377 4.796.18-5.125c.17-4.84.347-5.158 3.18-5.725 3.876-.775 3.817-2.169-.149-3.552-3.63-1.266-3.619-1.265-6.601-.067m-28.218 6.219c-.021 1.792.491 2.75 1.468 2.75 1.893 0 1.903-1.085.032-3.559-1.406-1.859-1.47-1.825-1.5.809m43.193-.561c-.857 1.526-.906 2.39-.161 2.85 1.531.947 2.151-.013 1.745-2.703l-.353-2.336-1.231 2.189m-30.973 4.811c.011 2.2.216 2.982.455 1.738.239-1.244.23-3.044-.02-4s-.446.062-.435 2.262m6.998-.985c-3.771 1.611-4.282 3.485-.95 3.485 1.265 0 2.84.54 3.5 1.2.933.933 1.2.933 1.2 0 0-.66 1.012-1.207 2.25-1.215 3.379-.023 5.187-1.392 3.547-2.685-2.37-1.871-6.257-2.19-9.547-.785M107 133.441c0 .793.408 1.693.907 2.001.498.309.671-.34.383-1.441-.611-2.335-1.29-2.63-1.29-.56m42 .5c0 2.415.556 2.658 1.349.591.31-.807.133-1.734-.393-2.059-.526-.325-.956.336-.956 1.468M128.272 138c0 2.475.195 3.488.434 2.25.238-1.238.238-3.262 0-4.5-.239-1.238-.434-.225-.434 2.25m4.978-2.338c-2.191.884-1.348 3.143 1.75 4.688 1.65.823 3 1.125 3 .671 0-.454 1.463-1.344 3.25-1.978 3.113-1.103 3.168-1.213 1.309-2.597-1.882-1.402-6.76-1.812-9.309-.784m12.301 9.281c-1.879 2.077-1.874 2.094.526 1.728 1.333-.204 2.344-.674 2.248-1.046-.633-2.442-1.081-2.552-2.774-.682m-12.801 7.719c.688.278 1.813.278 2.5 0 .688-.277.125-.504-1.25-.504s-1.937.227-1.25.504m-6.5 1.027c.963.252 2.537.252 3.5 0 .963-.251.175-.457-1.75-.457s-2.713.206-1.75.457M93 156.441c0 1.343.454 2.722 1.009 3.065 1.808 1.117 4.991-.577 4.991-2.657 0-1.19-.512-1.828-1.25-1.557-.687.252-1.123 1.006-.969 1.677.155.67-.295 1.017-1 .771-.704-.246-1.149-1.188-.987-2.094.161-.905-.176-1.646-.75-1.646-.574 0-1.044 1.098-1.044 2.441m69.512-1.46c-.393.635-1.3.931-2.015.656-1.944-.746-2.558.38-1.394 2.555 1.293 2.416 5.237 2.039 5.731-.548.44-2.31-1.304-4.31-2.322-2.663M125 159c0 1.619.667 2 3.5 2s3.5-.381 3.5-2-.667-2-3.5-2-3.5.381-3.5 2m35-1c0 .55.423 1 .941 1s1.219-.45 1.559-1c.34-.55-.084-1-.941-1s-1.559.45-1.559 1m-34.353 20.477c-.536 1.398 1.691 4.523 3.224 4.523 1.351 0 3.129-2.387 3.129-4.2 0-.99-.705-1.8-1.567-1.8-1.113 0-1.383.581-.933 2 .462 1.456.18 2-1.04 2-1.061 0-1.468-.538-1.111-1.468.31-.807.18-1.705-.288-1.994-.468-.29-1.104.133-1.414.939" fill="#EDEFEB" fill-rule="evenodd"/><path fill-opacity=".607" d="M117 68.1c-2.475.485-8.939 3.135-14.364 5.89C97.21 76.746 91.568 79 90.098 79c-3.246 0-4.083 3.509-1.028 4.308 2.483.649 2.514 2.692.041 2.692-1.395 0-2.066.981-2.569 3.75-.375 2.063-1.325 5.678-2.112 8.035-1.246 3.733-1.242 4.572.027 6.51.845 1.288 1.119 2.773.652 3.529-.444.718-.583 2.475-.31 3.904.399 2.089.179 2.477-1.124 1.978-4.006-1.538-4.656 16.696-1.095 30.726 6.81 26.833 29.642 47.803 49.214 45.202 12.529-1.665 28.475-14.006 35.589-27.542 3.578-6.81 4.779-11.928 2.462-10.497-.778.481-.88.27-.312-.648.463-.749.963-2.5 1.111-3.89.149-1.391.714-2.676 1.257-2.857.543-.181.756-.93.475-1.663-.282-.734-.051-1.62.512-1.968.564-.348.741-1.372.395-2.275-.455-1.184-.209-1.479.883-1.06 1.278.49 1.545-.89 1.71-8.844.16-7.679-.088-9.534-1.34-10.014-.845-.325-1.536-1.243-1.536-2.042 0-.799.45-1.174 1-.834.55.34 1-.11 1-1s-.45-1.34-1-1c-.55.34-1-.309-1-1.441 0-2.585.231-1.532-2.562-11.682-3.483-12.66-3.842-16.111-1.976-18.96 1.542-2.353 1.511-2.417-1.15-2.417-1.503 0-7.476-2.241-13.273-4.98-14.374-6.792-24.4-8.394-37.039-5.92m7 1.9c0 .55.45 1 1 1s1-.45 1-1-.45-1-1-1-1 .45-1 1m4 0c0 .55.675 1 1.5 1s1.5-.45 1.5-1-.675-1-1.5-1-1.5.45-1.5 1m4.5 0c-.34.55.11 1 1 1s1.34-.45 1-1c-.34-.55-.79-1-1-1-.21 0-.66.45-1 1m-16 1c-.34.55.084 1 .941 1S119 71.55 119 71s-.423-1-.941-1-1.219.45-1.559 1m4.313-.317c.721.289 1.584.253 1.916-.079.332-.332-.258-.568-1.312-.525-1.165.048-1.402.285-.604.604M137.5 71c.34.55 1.041 1 1.559 1s.941-.45.941-1-.702-1-1.559-1-1.281.45-.941 1m4 1c.34.55 1.068 1 1.618 1s.722-.45.382-1c-.34-.55-1.068-1-1.618-1s-.722.45-.382 1m-28.687.683c.721.289 1.584.253 1.916-.079.332-.332-.258-.568-1.312-.525-1.165.048-1.402.285-.604.604m32.187.241c0 .474.675 1.121 1.5 1.438.825.316 1.5.187 1.5-.286 0-.474-.675-1.121-1.5-1.438-.825-.316-1.5-.187-1.5.286M108.5 74c-.34.55-.168 1 .382 1s1.278-.45 1.618-1c.34-.55.168-1-.382-1s-1.278.45-1.618 1m40.5 1c0 .55.477 1 1.059 1s.781-.45.441-1-.816-1-1.059-1-.441.45-.441 1m-47 2.5c-1.864 1.375-2.939 2.5-2.389 2.5.55 0 2.525-1.125 4.389-2.5 1.864-1.375 2.939-2.5 2.389-2.5-.55 0-2.525 1.125-4.389 2.5m51-.5c0 .55.477 1 1.059 1s.781-.45.441-1-.816-1-1.059-1-.441.45-.441 1m-30 1c0 1.145 1.425 1.145 5 0 2.231-.715 2.097-.811-1.25-.9-2.062-.055-3.75.35-3.75.9m8.5 0c.34.55 1.041 1 1.559 1s.941-.45.941-1-.702-1-1.559-1-1.281.45-.941 1m3.5.025c0 .411 1.326.943 2.947 1.181 1.621.237 2.753.117 2.515-.268-.618-.999-5.462-1.809-5.462-.913M116 79c-1.282.828-1.246.972.25.985.963.008 1.75-.435 1.75-.985 0-1.22-.113-1.22-2 0m3.813-.317c.721.289 1.584.253 1.916-.079.332-.332-.258-.568-1.312-.525-1.165.048-1.402.285-.604.604M157 79c0 .55.477 1 1.059 1s.781-.45.441-1-.816-1-1.059-1-.441.45-.441 1m-45 1c-1.282.828-1.246.972.25.985.963.008 1.75-.435 1.75-.985 0-1.22-.113-1.22-2 0m30.452-.077c.314.508 1.886 1.212 3.494 1.565 2.252.495 3.083 1.367 3.616 3.794 1.235 5.622 3.393 8.557 7.688 10.458 3.864 1.71 3.401.101-.523-1.818-2.73-1.335-3.439-2.458-4.602-7.292-.756-3.142-1.58-5.508-1.831-5.257-.252.251-1.981-.18-3.843-.958-3.96-1.655-4.779-1.755-3.999-.492M95 81c0 .55.423 1 .941 1s1.219-.45 1.559-1c.34-.55-.084-1-.941-1S95 80.45 95 81m65.321-.289c.819 1.325 5.679 2.309 5.679 1.15 0-.473-.638-.861-1.418-.861-.78 0-2.204-.301-3.164-.67-1.099-.422-1.506-.281-1.097.381M92 82c-1.282.828-1.246.972.25.985.963.008 1.75-.435 1.75-.985 0-1.22-.113-1.22-2 0m15.314.75c-.342.963-.805 2.088-1.027 2.5-.223.412-.041.746.404.742.445-.004 1.329-1.129 1.965-2.5.647-1.395.743-2.492.219-2.492-.516 0-1.218.787-1.561 1.75M122 82.487c-.825.209-3.09.637-5.032.951-2.816.455-3.776 1.216-4.733 3.751-.66 1.748-.999 3.381-.752 3.627 1.359 1.359 20.188 2.326 26.64 1.368 3.892-.577 7.203-1.193 7.358-1.367.155-.174.066-1.732-.198-3.462-.383-2.513-1.065-3.261-3.395-3.727-4.002-.801-18.048-1.606-19.888-1.141m37 2.982c0 .847-.592 1.241-1.399.931-2.376-.911-2.954 1.691-.844 3.801 1.646 1.646 2.375 1.799 4.121.864 2.344-1.254 2.777-4.01.922-5.865-1.624-1.624-2.8-1.511-2.8.269m-64.82.814c-2.427 2.924 1.342 6.605 5.233 5.112 2.253-.865 1.734-5.755-.659-6.209-1.309-.248-1.589.126-1.116 1.491.604 1.744.569 1.743-.806-.017-1.247-1.598-1.598-1.647-2.652-.377m11.458 2.217c-.316.825-.139 1.5.393 1.5.533 0 .969-.675.969-1.5s-.177-1.5-.393-1.5c-.216 0-.652.675-.969 1.5m-15.971.167c-.367.366-.667 1.131-.667 1.7 0 .626.466.567 1.183-.15.651-.651.951-1.416.667-1.7-.284-.284-.817-.217-1.183.15M103.5 92c-.34.55-.141 1 .441 1S105 92.55 105 92s-.198-1-.441-1-.719.45-1.059 1m-16.181 3.741c-1.554 4.964-.839 5.438 1.122.745C90.23 92.205 90.267 92 89.245 92c-.416 0-1.282 1.683-1.926 3.741m20.602-.157c-1.266 1.347-4.059 2.976-6.207 3.62-5.043 1.511-5.718 3.419-5.699 16.111.026 18.097 4.345 30.086 14.476 40.185 3.31 3.3 8.658 7.55 11.883 9.444l5.865 3.445 5.595-2.929c7.7-4.032 17.228-13.219 20.926-20.179 4.785-9.007 6.496-17.09 6.466-30.558-.028-12.608-.518-14.09-5.017-15.188-1.49-.363-4.291-1.919-6.225-3.457-2.964-2.357-3.905-2.634-6-1.767-3.341 1.384-27.792 1.33-31.123-.069-2.292-.962-2.94-.786-4.94 1.342M97 96c-.901.582-1.025.975-.309.985.655.008 1.469-.435 1.809-.985.767-1.242.421-1.242-1.5 0m66 .078c-2.302.666-2.327.731-.311.822 1.967.09 2.269.839 2.965 7.35.426 3.987.737 7.925.691 8.75-.246 4.375-1.48 15.202-1.854 16.268-.238.678-.695 2.582-1.015 4.232-.731 3.773-.903 4.35-2.35 7.889-.65 1.588-.978 3.093-.728 3.343.669.668 3.433-5.017 4.024-8.275.281-1.547 1.062-5.321 1.736-8.385 1.489-6.765 1.732-28.959.342-31.144-.71-1.116-1.725-1.363-3.5-.85M92.184 98.75c-1.871 4.859-2.366 9.02-1.161 9.764.723.447 1.038.025.862-1.155-.423-2.836 1.082-9.359 2.16-9.359.525 0 .955-.45.955-1 0-2.028-1.79-.916-2.816 1.75m16.083 1.216c-2.797 2.605-3.624 5.498-2.287 7.996.6 1.121.737 2.038.305 2.038s-.734 1.462-.671 3.25c.085 2.428.528 3.176 1.75 2.956.9-.161 1.636.176 1.636.75 0 .574-.487 1.044-1.083 1.044s-.877.563-.625 1.25c.252.688.905 1.157 1.451 1.044.547-.113.92 1.499.831 3.583-.104 2.404.282 3.79 1.056 3.79.834 0 1.155-1.702 1.015-5.38-.114-2.959.113-5.896.504-6.528.397-.642-.351-2.059-1.697-3.216-3.379-2.903-4.297-8.02-1.69-9.416 2.362-1.264 3.238-.587 3.238 2.504 0 3.007 3.11 4.74 5.443 3.035 1.532-1.121 1.422-1.252-1.015-1.212-1.604.027-2.908-.573-3.157-1.454-.376-1.333-.305-1.333.638 0 .943 1.333 1.06 1.333 1.058 0-.001-.825-1.143-2.583-2.539-3.907-1.94-1.842-2.23-2.602-1.232-3.235.717-.455.826-.834.243-.843-.584-.008-2.012.87-3.172 1.951m37.509-1.125c.967.613.671 1.463-1.213 3.497-1.389 1.499-2.238 3.345-1.92 4.174.404 1.054-.117 1.497-1.786 1.518-2.071.027-2.146.154-.62 1.043 2.526 1.472 5.898-.581 5.543-3.374-.29-2.276.143-2.699 2.761-2.699 1.169 0 1.483.962 1.304 4-.13 2.2-.715 4-1.3 4-2.201 0-3.139 3.614-2.597 10 .304 3.575.823 5.825 1.153 5 .331-.825.521-2.492.421-3.704-.1-1.212.161-1.992.579-1.733 1.441.89 2.069-1.654.789-3.196-1.087-1.309-.992-1.493.619-1.206 1.724.307 1.907-.347 1.947-6.968.04-6.642-.184-7.482-2.456-9.228-1.375-1.056-2.95-1.924-3.5-1.927-.55-.004-.426.357.276.803m-16.867 2.292c1.472 1.579 1.829 2.927 1.376 5.192-.547 2.733-.446 2.905.947 1.617.857-.793 1.373-1.748 1.147-2.123-.227-.374.046-.964.606-1.31 1.463-.904-2.076-5.439-4.274-5.478-1.654-.029-1.64.129.198 2.102m-43.326.733c-.431.697-.513 1.537-.183 1.867.895.895 1.871-.421 1.387-1.871-.338-1.016-.574-1.016-1.204.004M122 105.969c0 .532.675.709 1.5.393.825-.317 1.5-.753 1.5-.969 0-.216-.675-.393-1.5-.393s-1.5.436-1.5.969m3.429 5.086c0 2.028 1.057 2.586 2.001 1.058.301-.487-.026-1.362-.727-1.944-.958-.796-1.274-.576-1.274.886m9.784-.975c.272.781-.453 1.969-1.61 2.64-2.012 1.167-1.986 1.212.623 1.034 3.261-.223 4.088-1.737 2.009-3.68-1.307-1.22-1.447-1.219-1.022.006M90 111.5c0 .825.45 1.5 1 1.5s1-.675 1-1.5-.45-1.5-1-1.5-1 .675-1 1.5m30.25-.675c-.972.617-.899 1.224.332 2.734 1.335 1.639 1.496 1.671 1.036.203-.3-.956-.225-1.631.168-1.5s.86-.201 1.039-.737c.432-1.296-1.015-1.689-2.575-.7M90 115.5c0 .825.436 1.5.969 1.5.532 0 .709-.675.393-1.5-.317-.825-.753-1.5-.969-1.5-.216 0-.393.675-.393 1.5m-7.303.893c-.409 1.041-.508 2.129-.221 2.417.913.912 1.715-.583 1.333-2.482-.35-1.74-.404-1.737-1.112.065M173 120c0 .55.45 1 1 1s1-.45 1-1-.45-1-1-1-1 .45-1 1m-91 1.5c0 .825.177 1.5.393 1.5.216 0 .652-.675.969-1.5.316-.825.139-1.5-.393-1.5-.533 0-.969.675-.969 1.5m9.079 2.083c.048 1.165.285 1.402.604.605.289-.722.253-1.585-.079-1.917-.332-.332-.568.258-.525 1.312M82 125.941c0 2.415.556 2.658 1.349.591.31-.807.133-1.734-.393-2.059-.526-.325-.956.336-.956 1.468M173.5 127c-.34.55-.141 1 .441 1s1.059-.45 1.059-1-.198-1-.441-1-.719.45-1.059 1M82 130.5c0 .825.45 1.5 1 1.5s1-.675 1-1.5-.45-1.5-1-1.5-1 .675-1 1.5m91.583-.634c-.431.697-.513 1.537-.183 1.867.895.895 1.871-.421 1.387-1.871-.338-1.016-.574-1.016-1.204.004m-25.548 2.068c-1.267 2.367-1.326 3.364-.156 2.641.883-.546 2.259-4.575 1.563-4.575-.205 0-.837.87-1.407 1.934m-39.34 1.009c.656 2.506 1.862 2.654 2.751.337.363-.945.34-1.399-.051-1.008s-1.279.239-1.974-.338c-.967-.802-1.137-.565-.726 1.009m-25.616 1.64c.048 1.165.285 1.402.604.605.289-.722.253-1.585-.079-1.917-.332-.332-.568.258-.525 1.312m10 0c.048 1.165.285 1.402.604.605.289-.722.253-1.585-.079-1.917-.332-.332-.568.258-.525 1.312m14.492 2.988c-1.742 1.743-2.127 6.967-.582 7.922.543.336.748-.015.454-.781-.294-.765.161-1.969 1.011-2.674 1.048-.87 1.546-.921 1.546-.16 0 .617.585 1.122 1.299 1.122.896 0 1.173-1.086.891-3.5-.443-3.791-2.075-4.472-4.619-1.929m38.362-1.321c-.722 2.671-.676 6.75.075 6.75.546 0 .992-.402.992-.893s.609-1.127 1.354-1.413c1.013-.388 1.281.39 1.067 3.094-.198 2.497-.003 3.165.631 2.162 1.232-1.947 1.197-7.678-.052-8.45-.55-.34-1-.141-1 .441s-.436 1.059-.969 1.059c-.532 0-.709-.675-.393-1.5.317-.825.078-1.5-.531-1.5s-1.137.113-1.174.25M83 138.441c0 .857.45 1.559 1 1.559s1-.423 1-.941-.45-1.219-1-1.559c-.55-.34-1 .084-1 .941m12 2.441c0 .55.45 1.278 1 1.618.55.34 1 .168 1-.382s-.45-1.278-1-1.618c-.55-.34-1-.168-1 .382m3.229 6.546c1.236 1.886 2.379 3.297 2.54 3.136.497-.497-3.222-6.551-4.028-6.558-.418-.003.252 1.537 1.488 3.422M85 147.5c0 .825.436 1.5.969 1.5.532 0 .709-.675.393-1.5-.317-.825-.753-1.5-.969-1.5-.216 0-.393.675-.393 1.5m71.185 3.212c-4.444 6.923-12.647 14.098-19.564 17.109-1.584.69-2.66 1.473-2.391 1.742.969.969 10.373-4.688 14.89-8.957 4.809-4.547 11.417-13.402 10.605-14.214-.257-.258-1.85 1.687-3.54 4.32m-44.676-2.299c-2.606 1.07-2.735 1.292-1 1.725 1.095.274 3.063.234 4.374-.087 1.949-.479 2.131-.793 1-1.726-1.039-.856-2.128-.834-4.374.088m29.591-.034c-.916 1.104-.603 1.483 1.568 1.898 1.491.285 3.608.187 4.703-.218 1.753-.649 1.593-.876-1.339-1.898-4.054-1.413-3.56-1.435-4.932.218M86.638 151.5c.317.825.753 1.5.969 1.5.216 0 .393-.675.393-1.5s-.436-1.5-.969-1.5c-.532 0-.709.675-.393 1.5m16.362 3c1.292 1.375 2.506 2.5 2.697 2.5.192 0-.388-1.125-1.289-2.5-.901-1.375-2.115-2.5-2.697-2.5-.583 0-.003 1.125 1.289 2.5m-15 .941c0 .857.45 1.559 1 1.559s1-.423 1-.941-.45-1.219-1-1.559c-.55-.34-1 .084-1 .941m4.357.072C91.62 157.432 93.705 160 96 160c2.346 0 4.184-2.357 3.41-4.373-.804-2.097-6.259-2.185-7.053-.114m67.393-.834c-2.313.618-2.241 3.988.112 5.247 2.431 1.301 5.494-.838 4.985-3.481-.383-1.989-2.073-2.575-5.097-1.766m7.434 1.817c-.628 1.377-.753 2.504-.279 2.504.83 0 2.326-4.102 1.718-4.711-.164-.163-.812.829-1.439 2.207M89.638 159.5c.317.825.964 1.5 1.438 1.5.473 0 .602-.675.286-1.5-.317-.825-.964-1.5-1.438-1.5-.473 0-.602.675-.286 1.5m20.224 1.822c1.572 1.907 8.064 6.085 8.61 5.54.201-.202-1.96-1.903-4.803-3.78-2.843-1.878-4.556-2.67-3.807-1.76m55.138-.263c0 .582.45.781 1 .441s1-.816 1-1.059-.45-.441-1-.441-1 .477-1 1.059m-73 1.527c0 1.338 7.568 11.285 9.455 12.426 1.578.955 1.446.582-.58-1.637-1.444-1.581-3.866-4.787-5.383-7.125-2.632-4.056-3.492-4.958-3.492-3.664m66.511 8.139-3.771 4.775 4.25-4.297c2.337-2.363 4.034-4.512 3.771-4.775-.263-.263-2.176 1.67-4.25 4.297M120.5 168c.34.55.816 1 1.059 1s.441-.45.441-1-.477-1-1.059-1-.781.45-.441 1m2.5.393c0 .216.698.661 1.552.989.89.341 1.291.173.941-.393-.587-.951-2.493-1.406-2.493-.596m4.5 1.607c.34.55 1.041 1 1.559 1s.941-.45.941-1-.702-1-1.559-1-1.281.45-.941 1m3.5 0c0 .55.45 1 1 1s1-.45 1-1-.45-1-1-1-1 .45-1 1m-3.75 7.031c-3.636 1.462-2.19 5.969 1.915 5.969 2.725 0 4.185-3.507 2.262-5.431-.864-.863-1.65-1.54-1.748-1.506-.099.035-1.191.471-2.429.968m22.965 1.53c-1.257 1.342-1.898 2.439-1.425 2.439.474 0 1.918-1.125 3.21-2.5s1.933-2.472 1.424-2.439c-.508.034-1.952 1.159-3.209 2.5m-44.493.513c1.222 1.273 2.474 2.063 2.781 1.756.308-.308-.692-1.349-2.222-2.315l-2.781-1.756 2.222 2.315m4.278 2.957c0 .533.675.969 1.5.969s1.5-.177 1.5-.393c0-.216-.675-.652-1.5-.969-.825-.316-1.5-.139-1.5.393m35 1.028c0 .582.45.781 1 .441s1-.816 1-1.059-.45-.441-1-.441-1 .477-1 1.059M114 184c0 .55.477 1 1.059 1s.781-.45.441-1-.816-1-1.059-1-.441.45-.441 1m3 1.393c0 .216.675.652 1.5.969.825.316 1.5.139 1.5-.393 0-.533-.675-.969-1.5-.969s-1.5.177-1.5.393m4.5 1.607c-.34.55.11 1 1 1s1.34-.45 1-1c-.34-.55-.79-1-1-1-.21 0-.66.45-1 1m7.861 1.225c-.618.999 1.576.878 4.139-.23 1.705-.736 1.582-.84-.83-.705-1.556.088-3.045.508-3.309.935" fill="#EDEFEB" fill-rule="evenodd"/></svg>